# xmcd
#
# Track frame offsets: 
#        150
#        15428
#        36633
#        51069
#        65536
#        82728
#        97938
#        113690
#        132103
#        145779
#        158979
#        171501
#        184487
#
# Disc length: 2706 seconds
#
# Revision: 0
# Processed by: cddbd v1.5.2PL0 Copyright (c) Steve Scherf et al.
# Submitted via: ExactAudioCopy v1.0b3
#
DISCID=aa0a900d
DTITLE=Alison Krauss and Union Station - New Favorite
DYEAR=2011
DGENRE=Folk/Rock
TTITLE0=Let me touch for awhile
TTITLE1=The Boy who wouldn't hoe cprn
TTITLE2=The lucky one
TTITLE3=Choctaw hayride
TTITLE4=Crazy faith
TTITLE5=Momma cried
TTITLE6=I'm gone
TTITLE7=Daylight
TTITLE8=Bright sunny south
TTITLE9=Stars
TTITLE10=It all comes down to you
TTITLE11=Take me for longing
TTITLE12=New Favorite
EXTD=
EXTT0=
EXTT1=
EXTT2=
EXTT3=
EXTT4=
EXTT5=
EXTT6=
EXTT7=
EXTT8=
EXTT9=
EXTT10=
EXTT11=
EXTT12=
PLAYORDER=
